<svg viewBox="0 0 60 60" xmlns="http://www.w3.org/2000/svg">
  <g class="petal-group" transform="translate(30,30)">
    <path d="M0,-22 C6,-22 11,-15 9,-4 C7,6 -3,9 -9,4 C-15,-1 -11,-16 -4,-21 C-3,-21.7 -1,-22 0,-22Z" fill="none" stroke="#c9956b" stroke-width="1.2" opacity="0.8"/>
    <path d="M0,-22 C6,-22 11,-15 9,-4 C7,6 -3,9 -9,4 C-15,-1 -11,-16 -4,-21 C-3,-21.7 -1,-22 0,-22Z" fill="none" stroke="#c9956b" stroke-width="1.2" opacity="0.4" transform="rotate(60)"/>
    <path d="M0,-22 C6,-22 11,-15 9,-4 C7,6 -3,9 -9,4 C-15,-1 -11,-16 -4,-21 C-3,-21.7 -1,-22 0,-22Z" fill="none" stroke="#c9956b" stroke-width="1.2" opacity="0.2" transform="rotate(120)"/>
    <path d="M0,-22 C6,-22 11,-15 9,-4 C7,6 -3,9 -9,4 C-15,-1 -11,-16 -4,-21 C-3,-21.7 -1,-22 0,-22Z" fill="none" stroke="#c9956b" stroke-width="1.2" opacity="0.8" transform="rotate(180)"/>
    <path d="M0,-22 C6,-22 11,-15 9,-4 C7,6 -3,9 -9,4 C-15,-1 -11,-16 -4,-21 C-3,-21.7 -1,-22 0,-22Z" fill="none" stroke="#c9956b" stroke-width="1.2" opacity="0.4" transform="rotate(240)"/>
    <path d="M0,-22 C6,-22 11,-15 9,-4 C7,6 -3,9 -9,4 C-15,-1 -11,-16 -4,-21 C-3,-21.7 -1,-22 0,-22Z" fill="none" stroke="#c9956b" stroke-width="1.2" opacity="0.2" transform="rotate(300)"/>
    <circle cx="0" cy="0" r="2.5" fill="#c9956b" opacity="0.85"/>
  </g>
</svg>